<svg width="23" height="22" viewBox="0 0 23 22" fill="none" xmlns="http://www.w3.org/2000/svg">
<path d="M16.2917 5.49998C17.3502 5.49998 18.2083 4.67917 18.2083 3.66665C18.2083 2.65412 17.3502 1.83331 16.2917 1.83331C15.2331 1.83331 14.375 2.65412 14.375 3.66665C14.375 4.67917 15.2331 5.49998 16.2917 5.49998Z" fill="#1D2E5B"/>
<path d="M15.1196 10.0549C15.3396 10.3685 15.6552 10.6097 16.0234 10.7458C16.3917 10.8819 16.7949 10.9063 17.1781 10.8157L20.356 10.0558L19.8931 8.27747L16.7153 9.03739L15.3937 7.14264C15.1114 6.73799 14.6732 6.45658 14.1747 6.3598L10.489 5.65397C10.0766 5.57482 9.64852 5.62772 9.27076 5.80449C8.89299 5.98127 8.58658 6.2721 8.39883 6.63205L6.80992 9.67172L8.52438 10.4921L10.1133 7.45155L11.9983 7.81272L7.12425 15.5833H2.875V17.4166H7.12425C7.79317 17.4166 8.42279 17.0756 8.76779 16.5266L10.6059 13.5969L15.5595 14.5447L17.2998 19.5396L19.1168 18.9594L17.3775 13.9654C17.2701 13.6588 17.0802 13.3847 16.8268 13.1706C16.5734 12.9566 16.2656 12.8102 15.9342 12.7462L13.0218 12.1898L14.72 9.48197L15.1196 10.0549Z" fill="#1D2E5B"/>
</svg>
