<svg width="22" height="23" viewBox="0 0 22 23" fill="none" xmlns="http://www.w3.org/2000/svg">
<path opacity="0.3" d="M15.8401 2.68832C16.8897 2.69066 17.8956 3.1116 18.6377 3.85904C19.3798 4.60649 19.7978 5.61956 19.8001 6.6766V16.4257C19.7978 17.4828 19.3798 18.4959 18.6377 19.2433C17.8956 19.9907 16.8897 20.4117 15.8401 20.414H6.16013C5.11211 20.4094 4.10847 19.9874 3.36823 19.2402C2.62799 18.493 2.21124 17.4813 2.20893 16.4257V6.6766C2.21124 5.62109 2.62799 4.60935 3.36823 3.86216C4.10847 3.11497 5.11211 2.69299 6.16013 2.68832H15.8401ZM15.8401 1.35889H6.16013C4.75978 1.35889 3.4168 1.91914 2.4266 2.91641C1.43641 3.91367 0.880127 5.26626 0.880127 6.6766L0.880127 16.4257C0.880127 17.8361 1.43641 19.1887 2.4266 20.1859C3.4168 21.1832 4.75978 21.7435 6.16013 21.7435H15.8401C17.2405 21.7435 18.5835 21.1832 19.5737 20.1859C20.5638 19.1887 21.1201 17.8361 21.1201 16.4257V6.6766C21.1201 5.26626 20.5638 3.91367 19.5737 2.91641C18.5835 1.91914 17.2405 1.35889 15.8401 1.35889V1.35889Z" fill="#192144"/>
<path opacity="0.3" d="M11.0085 7.63266C11.7795 7.63266 12.5332 7.86293 13.1743 8.29435C13.8154 8.72577 14.315 9.33897 14.6101 10.0564C14.9052 10.7738 14.9824 11.5633 14.832 12.3249C14.6815 13.0865 14.3102 13.7861 13.765 14.3352C13.2198 14.8843 12.5252 15.2582 11.769 15.4097C11.0128 15.5612 10.2289 15.4835 9.5166 15.1863C8.80426 14.8891 8.19541 14.3859 7.76705 13.7402C7.33869 13.0945 7.11005 12.3354 7.11005 11.5589C7.10889 11.043 7.20894 10.5319 7.40444 10.055C7.59994 9.57813 7.88705 9.14484 8.24928 8.78003C8.61151 8.41521 9.04173 8.12605 9.51523 7.92915C9.98873 7.73225 10.4962 7.63149 11.0085 7.63266ZM11.0085 6.30323C9.97598 6.30148 8.96619 6.60823 8.10687 7.18466C7.24755 7.76109 6.57733 8.5813 6.18101 9.5415C5.78469 10.5017 5.68009 11.5587 5.88045 12.5788C6.08081 13.5989 6.57712 14.5362 7.30658 15.2721C8.03603 16.008 8.96584 16.5094 9.97835 16.7129C10.9909 16.9165 12.0406 16.8129 12.9946 16.4154C13.9487 16.0178 14.7642 15.3442 15.338 14.4797C15.9118 13.6152 16.2181 12.5988 16.2181 11.5589C16.2192 10.8691 16.0853 10.1859 15.824 9.54832C15.5627 8.91072 15.1792 8.33127 14.6953 7.84312C14.2114 7.35497 13.6368 6.9677 13.0041 6.70347C12.3715 6.43924 11.6933 6.30323 11.0085 6.30323Z" fill="#192144"/>
<path opacity="0.3" d="M16.4124 7.31519C17.0636 7.31519 17.5916 6.78347 17.5916 6.12756C17.5916 5.47166 17.0636 4.93994 16.4124 4.93994C15.7611 4.93994 15.2332 5.47166 15.2332 6.12756C15.2332 6.78347 15.7611 7.31519 16.4124 7.31519Z" fill="#192144"/>
</svg>
