<svg width="14" height="27" viewBox="0 0 14 27" fill="none" xmlns="http://www.w3.org/2000/svg">
<path d="M9.53 26.4089H2.71V14.3448H0V8.37821H2.63C2.43 5.67547 2.93 3.70219 4.15 2.3555C4.73171 1.75778 5.44042 1.2802 6.23079 0.953294C7.02116 0.626391 7.87578 0.457366 8.74 0.457031L13.52 0.457031V6.20854H9.76C9.53848 6.91194 9.4538 7.64682 9.51 8.37821H13.51V14.3448H9.51L9.53 26.4089ZM4.22 25.0061H8V12.942H12V9.80907H8V9.09831C8 7.22791 8 5.55389 9 4.92731L9.19 4.80573H12V1.85984H8.78C8.12565 1.85193 7.47682 1.97272 6.87559 2.21438C6.27436 2.45605 5.73416 2.81319 5.29 3.26264C4.29 4.41294 3.88 6.33946 4.19 9.0048L4.29 9.78101H1.5V12.942H4.22V25.0061Z" fill="#192144"/>
</svg>
