<svg width="28" height="19" viewBox="0 0 28 19" fill="none" xmlns="http://www.w3.org/2000/svg">
<path opacity="0.3" d="M21.6287 18.3623C20.9623 18.3436 20.3127 18.0967 19.75 17.6485C19.1625 17.1505 18.623 16.5687 18.1423 15.915C17.7448 15.4165 17.0855 14.578 16.8326 14.578C16.5797 14.578 16.399 15.6204 16.4081 16.3569C16.4119 16.8652 16.2599 17.356 15.9835 17.7278C15.6693 18.0499 15.2856 18.2471 14.8816 18.2944H13.1474C10.6549 18.2256 8.26825 17.0168 6.43644 14.8953C3.11257 11.0769 0.25838 3.78018 0.14096 3.46293C0.0289604 3.19789 -0.017943 2.89717 0.00616964 2.59873C0.0302823 2.30029 0.12433 2.01749 0.276444 1.78603C0.620696 1.42589 1.05664 1.23288 1.50483 1.24218H5.18999H5.29838C5.60329 1.29798 5.89555 1.43305 6.15644 1.63874C6.40195 1.84525 6.59853 2.13099 6.72548 2.46586C7.11492 3.51172 7.56158 4.52253 8.06225 5.49106C9.24548 7.75713 9.76935 8.27833 9.95903 8.39163C10.17 7.32914 10.2281 6.22793 10.1306 5.13982C10.1623 4.64424 10.0972 4.14645 9.94096 3.68953C9.74265 3.49054 9.49916 3.37551 9.24548 3.36095L8.58612 2.57916C8.45967 1.83136 9.11903 1.18553 9.57967 0.936258C10.499 0.57493 11.4634 0.42898 12.4248 0.505704H13.0661C13.7183 0.4844 14.3702 0.56047 15.0081 0.732311C16.5435 1.1402 16.4893 2.69246 16.4261 4.48266C16.4261 5.00386 16.381 5.61569 16.381 6.31818C16.381 6.48813 16.381 6.66942 16.381 6.86203C16.3454 7.35531 16.3729 7.85254 16.4622 8.33498C17.2142 7.54588 17.8474 6.59421 18.3319 5.52505C18.8548 4.51409 19.3139 3.45335 19.7048 2.35255C19.8239 2.00439 20.028 1.7126 20.2877 1.51918C20.5474 1.32576 20.8493 1.24067 21.15 1.27617H25.0158C25.1299 1.2625 25.2449 1.2625 25.359 1.27617C26.2622 1.27617 26.7952 1.60475 27.0119 2.23925C27.2287 2.87375 27.1655 4.12009 24.8803 7.46254L23.9771 8.74287C23.5395 9.27589 23.1626 9.88212 22.8571 10.5444C23.1992 11.0323 23.5875 11.466 24.0132 11.8361C25.0513 12.8173 25.9649 13.99 26.7229 15.3145C26.9007 15.572 27.017 15.8872 27.0585 16.2239C27.1001 16.5605 27.0651 16.9051 26.9577 17.218C26.7685 17.5645 26.5152 17.8486 26.2195 18.0459C25.9239 18.2431 25.5946 18.3478 25.2597 18.351L21.8364 18.4077L21.6287 18.3623ZM16.8326 12.8785C17.6455 12.8785 18.35 13.7736 19.0997 14.714C19.5046 15.2687 19.9592 15.7629 20.4545 16.1869C20.829 16.4994 21.2692 16.665 21.719 16.6628H21.8093L25.2416 16.6061C25.4109 16.5939 25.5766 16.54 25.7293 16.4475L25.639 16.2662C24.9553 15.0974 24.1399 14.0593 23.2184 13.1844C22.1435 12.0513 21.5926 11.5188 21.5293 10.6464C21.4661 9.77394 21.9719 9.0148 22.9835 7.57585L23.8868 6.31818C24.6493 5.34247 25.2753 4.21248 25.7384 2.97572C25.5368 2.96073 25.3348 2.96073 25.1332 2.97572H21.1861C21.1147 2.9557 21.0407 2.9557 20.9693 2.97572C20.5513 4.17838 20.0527 5.33443 19.479 6.43148C17.7719 9.62664 16.9681 10.0572 16.399 10.0572C16.2226 10.0572 16.0489 10.0027 15.8932 9.89857C14.99 9.25274 14.99 7.81378 15.0442 6.77139C15.0442 6.60144 15.0442 6.43148 15.0442 6.28419C15.0442 5.54771 15.0442 4.91321 15.0893 4.36936C15.1616 2.46586 15.0893 2.45453 14.7461 2.35255C14.1931 2.21547 13.6297 2.15468 13.0661 2.17127H12.4429C11.8694 2.1564 11.2958 2.19427 10.7268 2.28457C10.8129 2.36423 10.8891 2.45972 10.9526 2.56783C11.3251 3.30469 11.5109 4.16587 11.4855 5.03785C11.6029 6.90735 11.5397 9.34338 10.5823 9.93256C10.4127 10.0321 10.2275 10.0824 10.0403 10.0799C9.20031 10.0799 8.36935 9.08278 6.95128 6.38616C6.40711 5.35364 5.92119 4.27462 5.49709 3.15701L5.42483 3.0437C5.33362 2.98538 5.23632 2.94343 5.1358 2.91907H1.5229H1.45967C1.99257 4.30137 4.52161 10.4198 7.3487 13.6263C8.93619 15.4558 10.993 16.5127 13.1474 16.6061H14.8184C14.9036 16.5833 14.9857 16.5452 15.0623 16.4928C15.0623 16.4928 15.0623 16.4928 15.0623 16.3909C15.0623 16.0849 15.0623 13.445 16.4893 12.9918C16.5998 12.9372 16.715 12.8991 16.8326 12.8785Z" fill="#192144"/>
</svg>
