<svg width="17" height="16" viewBox="0 0 17 16" fill="none" xmlns="http://www.w3.org/2000/svg">
<path opacity="0.1" d="M12.9489 14C12.3544 14 11.7733 13.8314 11.279 13.5155C10.7847 13.1996 10.3995 12.7506 10.172 12.2252C9.94448 11.6999 9.88496 11.1218 10.0009 10.5641C10.1169 10.0064 10.4032 9.49414 10.8235 9.09207C11.2439 8.68999 11.7794 8.41618 12.3625 8.30524C12.9455 8.19431 13.5499 8.25125 14.0991 8.46885C14.6483 8.68645 15.1177 9.05495 15.448 9.52774C15.7783 10.0005 15.9545 10.5564 15.9545 11.125C15.9537 11.8872 15.6367 12.618 15.0732 13.157C14.5098 13.696 13.7457 13.9992 12.9489 14V14ZM12.9489 9.25C12.5612 9.25 12.1822 9.35997 11.8598 9.566C11.5375 9.77202 11.2862 10.0649 11.1378 10.4075C10.9895 10.7501 10.9507 11.1271 11.0263 11.4908C11.1019 11.8545 11.2886 12.1886 11.5628 12.4508C11.8369 12.713 12.1862 12.8916 12.5664 12.964C12.9467 13.0363 13.3408 12.9992 13.699 12.8573C14.0572 12.7154 14.3633 12.475 14.5787 12.1667C14.7941 11.8584 14.9091 11.4958 14.9091 11.125C14.9085 10.6279 14.7018 10.1513 14.3343 9.79982C13.9668 9.44831 13.4686 9.25058 12.9489 9.25V9.25Z" fill="#1D2E5B"/>
<path opacity="0.1" d="M4.32387 14C3.7294 14 3.14828 13.8314 2.654 13.5155C2.15972 13.1996 1.77447 12.7506 1.54698 12.2252C1.31949 11.6999 1.25996 11.1218 1.37594 10.5641C1.49191 10.0064 1.77818 9.49414 2.19853 9.09207C2.61888 8.68999 3.15444 8.41618 3.73749 8.30524C4.32053 8.19431 4.92487 8.25125 5.47409 8.46885C6.02331 8.68645 6.49273 9.05495 6.823 9.52774C7.15327 10.0005 7.32955 10.5564 7.32955 11.125C7.32868 11.8872 7.01174 12.618 6.44825 13.157C5.88476 13.696 5.12076 13.9992 4.32387 14V14ZM4.32387 9.25C3.93617 9.25 3.55718 9.35997 3.23482 9.566C2.91247 9.77202 2.66122 10.0649 2.51285 10.4075C2.36449 10.7501 2.32567 11.1271 2.40131 11.4908C2.47694 11.8545 2.66363 12.1886 2.93778 12.4508C3.21192 12.713 3.5612 12.8916 3.94145 12.964C4.32169 13.0363 4.71583 12.9992 5.07401 12.8573C5.4322 12.7154 5.73834 12.475 5.95374 12.1667C6.16913 11.8584 6.28409 11.4958 6.28409 11.125C6.28349 10.6279 6.07677 10.1513 5.70929 9.79982C5.34181 9.44831 4.84357 9.25058 4.32387 9.25V9.25Z" fill="#1D2E5B"/>
<path opacity="0.1" d="M10.7273 3.99997C10.865 4.00043 11.0014 3.97477 11.1287 3.92448C11.2559 3.87419 11.3715 3.80027 11.4687 3.70699C11.566 3.61371 11.6429 3.50292 11.6951 3.38103C11.7472 3.25913 11.7736 3.12856 11.7727 2.99685C11.7742 2.86579 11.7484 2.73576 11.6968 2.61436C11.6452 2.49296 11.5688 2.38263 11.472 2.28981C11.3753 2.19699 11.2602 2.12355 11.1334 2.07378C11.0067 2.02402 10.8708 1.99892 10.7338 1.99997C10.5965 1.99956 10.4605 2.02502 10.3335 2.07489C10.2065 2.12477 10.091 2.19809 9.9936 2.29065C9.89621 2.38322 9.81884 2.49323 9.76591 2.6144C9.71297 2.73557 9.68551 2.86552 9.68508 2.99685C9.68465 3.12817 9.71127 3.25828 9.76341 3.37977C9.81555 3.50125 9.8922 3.61172 9.98898 3.70487C10.0858 3.79802 10.2008 3.87202 10.3274 3.92265C10.4541 3.97329 10.59 3.99956 10.7273 3.99997V3.99997Z" fill="#1D2E5B"/>
<path opacity="0.1" d="M12.2808 6H10.8511C10.8276 6.00001 10.8046 5.99397 10.7844 5.98254C10.7643 5.9711 10.7477 5.95468 10.7364 5.935L9.69946 4.11719C9.6264 3.9821 9.52111 3.86536 9.39211 3.77643C9.26311 3.6875 9.11404 3.62886 8.95695 3.60528C8.79986 3.5817 8.63918 3.59383 8.4879 3.64069C8.33663 3.68755 8.19901 3.76782 8.08619 3.875L5.80384 6.075C5.61209 6.2622 5.50325 6.51295 5.5 6.775C5.5 7.31875 5.91165 7.5125 6.1044 7.62188C7.03551 8.135 7.69121 8.51032 8.05091 8.71875C8.07003 8.72989 8.08584 8.74554 8.09683 8.7642C8.10781 8.78285 8.1136 8.8039 8.11364 8.82532V10.9853C8.11364 11.2544 8.32991 11.4853 8.61121 11.4988C8.68183 11.502 8.75241 11.4915 8.81867 11.4679C8.88494 11.4443 8.94551 11.4081 8.99673 11.3615C9.04795 11.3149 9.08874 11.2588 9.11665 11.1967C9.14456 11.1345 9.159 11.0676 9.15909 11V8.3125C9.15914 8.23313 9.13943 8.15488 9.10159 8.08424C9.06376 8.0136 9.00888 7.95259 8.94151 7.90625L7.7327 7.07469C7.71753 7.06431 7.70485 7.05093 7.69553 7.03547C7.68621 7.02001 7.68046 7.00282 7.67867 6.98506C7.67687 6.9673 7.67907 6.94937 7.68513 6.93249C7.69118 6.91561 7.70094 6.90016 7.71375 6.88719L9.08591 5.4875C9.09998 5.4731 9.11741 5.46209 9.13677 5.45536C9.15614 5.44863 9.1769 5.44638 9.19735 5.44878C9.2178 5.45119 9.23737 5.45819 9.25445 5.46921C9.27154 5.48023 9.28565 5.49496 9.29565 5.51219L10.0085 6.74281C10.0538 6.82083 10.1201 6.88582 10.2006 6.93104C10.281 6.97627 10.3726 7.00008 10.4659 7H12.2955C12.3663 7.00008 12.4364 6.9864 12.5015 6.95978C12.5666 6.93316 12.6254 6.89416 12.6743 6.84515C12.7231 6.79614 12.7611 6.73815 12.7859 6.67468C12.8106 6.61121 12.8216 6.5436 12.8182 6.47594C12.8045 6.20688 12.562 6 12.2808 6Z" fill="#1D2E5B"/>
</svg>
