<svg width="68" height="69" viewBox="0 0 68 69" fill="none" xmlns="http://www.w3.org/2000/svg">
<ellipse cx="34" cy="34.5" rx="34" ry="34.5" fill="#121936"/>
<g clip-path="url(#clip0)">
<path d="M34 18.3999C27.4292 18.3999 22.1 23.8075 22.1 30.4749C22.1 38.2311 27.8474 41.6221 29.1179 43.1691C32.1692 46.8845 32.3416 50.5999 34 50.5999C35.6583 50.5999 35.8307 46.8845 38.882 43.1691C40.1525 41.6221 45.9 38.2311 45.9 30.4749C45.9 23.8075 40.5708 18.3999 34 18.3999ZM34 38.5249C29.6188 38.5249 26.0666 34.9205 26.0666 30.4749C26.0666 26.0293 29.6188 22.4249 34 22.4249C38.3812 22.4249 41.9333 26.0293 41.9333 30.4749C41.9333 34.9205 38.3812 38.5249 34 38.5249ZM34 26.4499C31.8104 26.4499 30.0333 28.2531 30.0333 30.4749C30.0333 32.6967 31.8104 34.4999 34 34.4999C36.1896 34.4999 37.9666 32.6967 37.9666 30.4749C37.9666 28.2531 36.1896 26.4499 34 26.4499Z" fill="#FFD74B"/>
<ellipse cx="34" cy="30.475" rx="1.32222" ry="1.34167" fill="#161C35"/>
</g>
<defs>
<clipPath id="clip0">
<rect width="31.7333" height="32.2" fill="white" transform="translate(18.1333 18.3999)"/>
</clipPath>
</defs>
</svg>
